<svg xmlns="http://www.w3.org/2000/svg" xmlns:xlink="http://www.w3.org/1999/xlink" width="200" zoomAndPan="magnify" viewBox="0 0 150 37.5" height="50" preserveAspectRatio="xMidYMid meet" version="1.0"><defs><g/><clipPath id="dc9d24571a"><path d="M 0.488281 5 L 16 5 L 16 31 L 0.488281 31 Z M 0.488281 5 " clip-rule="nonzero"/></clipPath><clipPath id="5269b4c687"><rect x="0" width="122" y="0" height="34"/></clipPath></defs><g transform="matrix(1, 0, 0, 1, 14, -0.000000000000001478)"><g clip-path="url(#5269b4c687)"><g clip-path="url(#dc9d24571a)"><g fill="#ffffff" fill-opacity="1"><g transform="translate(0.621541, 30.057253)"><g><path d="M 5.125 -15.84375 L 9.859375 -15.84375 L 9.859375 -0.28125 C 9.859375 -0.09375 9.734375 0 9.484375 0 L 5.46875 0 C 5.238281 0 5.125 -0.09375 5.125 -0.28125 Z M 0.34375 -20.609375 C 0.113281 -20.609375 0 -20.703125 0 -20.890625 L 0 -24.578125 C 0 -24.765625 0.113281 -24.859375 0.34375 -24.859375 L 14.609375 -24.859375 C 14.835938 -24.859375 14.953125 -24.765625 14.953125 -24.578125 L 14.953125 -20.890625 C 14.953125 -20.703125 14.835938 -20.609375 14.609375 -20.609375 Z M 0.34375 -20.609375 "/></g></g></g></g><g fill="#ffffff" fill-opacity="1"><g transform="translate(16.312889, 30.057253)"><g><path d="M 11.8125 -4.625 L 11.8125 0 L 0.34375 0 C 0.113281 0 0 -0.09375 0 -0.28125 L 0 -24.578125 C 0 -24.765625 0.113281 -24.859375 0.34375 -24.859375 L 11.8125 -24.859375 L 11.8125 -20.359375 L 4.75 -20.359375 L 4.75 -14.734375 L 14.515625 -14.734375 C 14.742188 -14.734375 14.859375 -14.640625 14.859375 -14.453125 L 14.859375 -10.5 C 14.859375 -10.3125 14.742188 -10.21875 14.515625 -10.21875 L 4.75 -10.21875 L 4.75 -4.625 Z M 11.8125 -4.625 "/></g></g></g><g fill="#ffffff" fill-opacity="1"><g transform="translate(31.911021, 30.057253)"><g><path d="M 14.203125 -4.5625 L 18.953125 -4.5625 L 18.953125 -0.28125 C 18.953125 -0.09375 18.835938 0 18.609375 0 L 14.578125 0 C 13.335938 0 12.039062 -0.09375 10.6875 -0.28125 C 9.34375 -0.46875 8.035156 -0.8125 6.765625 -1.3125 C 5.503906 -1.820312 4.359375 -2.535156 3.328125 -3.453125 C 2.304688 -4.378906 1.492188 -5.570312 0.890625 -7.03125 C 0.296875 -8.5 0 -10.300781 0 -12.4375 C 0 -14.625 0.300781 -16.460938 0.90625 -17.953125 C 1.519531 -19.453125 2.335938 -20.65625 3.359375 -21.5625 C 4.390625 -22.476562 5.539062 -23.171875 6.8125 -23.640625 C 8.09375 -24.117188 9.398438 -24.441406 10.734375 -24.609375 C 12.066406 -24.773438 13.347656 -24.859375 14.578125 -24.859375 L 18.609375 -24.859375 C 18.835938 -24.859375 18.953125 -24.765625 18.953125 -24.578125 L 18.953125 -14.828125 L 14.203125 -14.828125 L 14.203125 -20.328125 C 12.398438 -20.429688 10.785156 -20.226562 9.359375 -19.71875 C 7.941406 -19.207031 6.820312 -18.359375 6 -17.171875 C 5.1875 -15.984375 4.78125 -14.40625 4.78125 -12.4375 C 4.78125 -10.894531 5.003906 -9.625 5.453125 -8.625 C 5.898438 -7.632812 6.488281 -6.859375 7.21875 -6.296875 C 7.957031 -5.742188 8.75 -5.335938 9.59375 -5.078125 C 10.445312 -4.816406 11.273438 -4.660156 12.078125 -4.609375 C 12.890625 -4.554688 13.597656 -4.539062 14.203125 -4.5625 Z M 14.203125 -4.5625 "/></g></g></g><g fill="#ffffff" fill-opacity="1"><g transform="translate(51.828158, 30.057253)"><g><path d="M 20.578125 -24.859375 C 20.804688 -24.859375 20.921875 -24.765625 20.921875 -24.578125 L 20.921875 -0.28125 C 20.921875 -0.09375 20.804688 0 20.578125 0 L 16.46875 0 C 16.445312 0 16.398438 -0.0078125 16.328125 -0.03125 C 16.253906 -0.0507812 16.207031 -0.0703125 16.1875 -0.09375 L 4.75 -16.46875 L 4.75 -5.96875 L 0 -5.96875 L 0 -24.578125 C 0 -24.765625 0.101562 -24.859375 0.3125 -24.859375 L 4.4375 -24.859375 C 4.476562 -24.859375 4.53125 -24.851562 4.59375 -24.84375 C 4.65625 -24.832031 4.695312 -24.804688 4.71875 -24.765625 L 16.1875 -8.390625 L 16.1875 -24.578125 C 16.1875 -24.765625 16.3125 -24.859375 16.5625 -24.859375 Z M 20.578125 -24.859375 "/></g></g></g><g fill="#ffffff" fill-opacity="1"><g transform="translate(73.796043, 30.057253)"><g><path d="M 10.125 -4.25 C 10.351562 -4.25 10.46875 -4.160156 10.46875 -3.984375 L 10.46875 -0.28125 C 10.46875 -0.09375 10.351562 0 10.125 0 L 0.34375 0 C 0.113281 0 0 -0.09375 0 -0.28125 L 0 -3.984375 C 0 -4.160156 0.113281 -4.25 0.34375 -4.25 L 2.890625 -4.25 L 2.890625 -24.859375 L 7.640625 -24.859375 L 7.640625 -4.25 Z M 10.125 -4.25 "/></g></g></g><g fill="#ffffff" fill-opacity="1"><g transform="translate(84.79552, 30.057253)"><g><path d="M 5.125 -15.84375 L 9.859375 -15.84375 L 9.859375 -0.28125 C 9.859375 -0.09375 9.734375 0 9.484375 0 L 5.46875 0 C 5.238281 0 5.125 -0.09375 5.125 -0.28125 Z M 0.34375 -20.609375 C 0.113281 -20.609375 0 -20.703125 0 -20.890625 L 0 -24.578125 C 0 -24.765625 0.113281 -24.859375 0.34375 -24.859375 L 14.609375 -24.859375 C 14.835938 -24.859375 14.953125 -24.765625 14.953125 -24.578125 L 14.953125 -20.890625 C 14.953125 -20.703125 14.835938 -20.609375 14.609375 -20.609375 Z M 0.34375 -20.609375 "/></g></g></g><g fill="#ffffff" fill-opacity="1"><g transform="translate(100.486868, 30.057253)"><g><path d="M 14.109375 -20.109375 L 19.890625 -20.109375 L 13.890625 -11.6875 L 13.890625 -0.28125 C 13.890625 -0.09375 13.773438 0 13.546875 0 L 9.484375 0 C 9.253906 0 9.140625 -0.09375 9.140625 -0.28125 L 9.140625 -11.6875 C 7.648438 -13.820312 6.140625 -15.941406 4.609375 -18.046875 C 3.085938 -20.160156 1.570312 -22.273438 0.0625 -24.390625 C -0.0195312 -24.492188 -0.03125 -24.597656 0.03125 -24.703125 C 0.09375 -24.804688 0.207031 -24.859375 0.375 -24.859375 L 5.28125 -24.859375 C 5.425781 -24.859375 5.53125 -24.828125 5.59375 -24.765625 L 11.5 -16.46875 Z M 14.109375 -20.109375 "/></g></g></g></g></g></svg>